<svg xmlns="http://www.w3.org/2000/svg" width="1056" height="420" viewBox="0 0 1056 420" role="img" aria-labelledby="title desc">
  <title id="title">Freethinking IT workspace preview</title>
  <desc id="desc">A stylized product dashboard preview for an email example.</desc>
  <rect width="1056" height="420" rx="28" fill="#17202a"/>
  <rect x="40" y="40" width="976" height="340" rx="22" fill="#ffffff"/>
  <rect x="80" y="84" width="160" height="20" rx="10" fill="#17202a"/>
  <rect x="80" y="126" width="420" height="16" rx="8" fill="#d7e3ee"/>
  <rect x="80" y="158" width="330" height="16" rx="8" fill="#e8eef5"/>
  <rect x="80" y="218" width="240" height="72" rx="16" fill="#eff8ff"/>
  <rect x="350" y="218" width="240" height="72" rx="16" fill="#ecfdf3"/>
  <rect x="620" y="218" width="240" height="72" rx="16" fill="#fff7e8"/>
  <rect x="708" y="84" width="268" height="104" rx="18" fill="#246bfe"/>
  <rect x="736" y="116" width="160" height="18" rx="9" fill="#ffffff" opacity="0.95"/>
  <rect x="736" y="150" width="210" height="14" rx="7" fill="#bcd7ff"/>
  <circle cx="120" cy="254" r="14" fill="#1570ef"/>
  <circle cx="390" cy="254" r="14" fill="#16a34a"/>
  <circle cx="660" cy="254" r="14" fill="#f2a900"/>
  <rect x="80" y="326" width="896" height="14" rx="7" fill="#eef2f7"/>
</svg>
