<svg xmlns="http://www.w3.org/2000/svg" width="1056" height="420" aria-labelledby="title desc" role="img" viewBox="0 0 1056 420"><title id="title">Freethinking IT workspace preview</title><desc id="desc">A stylized product dashboard preview for an email example.</desc><rect width="1056" height="420" fill="#17202a" rx="28"/><rect width="976" height="340" x="40" y="40" fill="#fff" rx="22"/><rect width="160" height="20" x="80" y="84" fill="#17202a" rx="10"/><rect width="420" height="16" x="80" y="126" fill="#d7e3ee" rx="8"/><rect width="330" height="16" x="80" y="158" fill="#e8eef5" rx="8"/><rect width="240" height="72" x="80" y="218" fill="#eff8ff" rx="16"/><rect width="240" height="72" x="350" y="218" fill="#ecfdf3" rx="16"/><rect width="240" height="72" x="620" y="218" fill="#fff7e8" rx="16"/><rect width="268" height="104" x="708" y="84" fill="#246bfe" rx="18"/><rect width="160" height="18" x="736" y="116" fill="#fff" opacity=".95" rx="9"/><rect width="210" height="14" x="736" y="150" fill="#bcd7ff" rx="7"/><circle cx="120" cy="254" r="14" fill="#1570ef"/><circle cx="390" cy="254" r="14" fill="#16a34a"/><circle cx="660" cy="254" r="14" fill="#f2a900"/><rect width="896" height="14" x="80" y="326" fill="#eef2f7" rx="7"/></svg>